<?xml version="1.0" standalone="no"?>
<!DOCTYPE svg PUBLIC "-//W3C//DTD SVG 20010904//EN"
 "http://www.w3.org/TR/2001/REC-SVG-20010904/DTD/svg10.dtd">
<svg version="1.0" xmlns="http://www.w3.org/2000/svg"
 width="1000.000000pt" height="1000.000000pt" viewBox="0 0 1000.000000 1000.000000"
 preserveAspectRatio="xMidYMid meet">

<g transform="translate(0.000000,1000.000000) scale(0.100000,-0.100000)"
fill="#ffff" stroke="none">
<path d="M8260 6430 c0 -5 -15 -10 -32 -10 -25 0 -29 -3 -18 -10 11 -7 6 -10
-20 -10 -26 0 -31 -3 -20 -10 12 -8 11 -10 -5 -10 -11 0 -27 -9 -35 -20 -8
-11 -20 -20 -28 -20 -28 0 -62 -48 -62 -87 0 -28 -3 -34 -10 -23 -7 11 -10 -3
-10 -47 0 -56 -2 -63 -20 -63 -17 0 -20 7 -20 40 0 22 -4 40 -10 40 -5 0 -10
23 -10 50 l0 50 -82 0 c-57 0 -78 3 -68 10 10 7 -18 10 -87 10 -62 0 -103 4
-103 10 0 6 -37 10 -90 10 -53 0 -90 4 -90 10 0 6 -22 10 -50 10 -27 0 -50 -3
-50 -6 0 -3 14 -19 30 -34 17 -15 30 -35 30 -44 0 -9 5 -16 10 -16 6 0 10 -9
10 -20 0 -11 5 -20 10 -20 6 0 10 -13 10 -30 0 -16 -3 -30 -6 -30 -10 0 -34
28 -34 40 0 14 -86 100 -101 100 -6 0 -24 14 -39 30 -15 17 -34 30 -42 30 -7
0 -20 9 -28 20 -8 11 -22 20 -32 20 -10 0 -18 5 -18 10 0 6 -117 10 -330 10
-213 0 -330 -4 -330 -10 0 -5 -13 -10 -28 -10 -16 0 -34 -8 -42 -20 -8 -11
-22 -20 -32 -20 -10 0 -18 -4 -18 -10 0 -5 -8 -10 -18 -10 -10 0 -24 -9 -32
-20 -8 -11 -21 -20 -30 -20 -9 0 -22 -9 -30 -20 -8 -11 -21 -20 -30 -20 -9 0
-22 -9 -30 -20 -8 -11 -21 -20 -28 -20 -8 0 -27 -13 -42 -30 -15 -16 -33 -30
-40 -30 -6 0 -29 -18 -50 -40 -21 -22 -44 -40 -50 -40 -7 0 -25 -13 -40 -30
-15 -16 -33 -30 -40 -30 -6 0 -29 -18 -50 -40 -21 -22 -44 -40 -50 -40 -7 0
-25 -13 -40 -30 -15 -16 -33 -30 -40 -30 -7 0 -25 -13 -40 -30 -15 -16 -34
-30 -42 -30 -7 0 -20 -9 -28 -20 -8 -11 -22 -20 -32 -20 -10 0 -18 -4 -18 -10
0 -5 -9 -10 -20 -10 -11 0 -20 -4 -20 -10 0 -5 -9 -10 -19 -10 -11 0 -21 -6
-24 -12 -2 -7 -8 -10 -12 -6 -4 4 20 34 54 67 33 33 61 62 61 65 0 4 -18 6
-40 6 -22 0 -40 -4 -40 -10 0 -5 -22 -10 -50 -10 -27 0 -50 -4 -50 -10 0 -6
-33 -10 -80 -10 -47 0 -80 -4 -80 -10 0 -6 -83 -10 -230 -10 -147 0 -230 4
-230 10 0 6 -34 10 -82 10 -57 0 -78 3 -68 10 11 7 -3 10 -47 10 -35 0 -63 4
-63 10 0 6 -22 10 -50 10 -27 0 -50 5 -50 10 0 6 -18 10 -40 10 -22 0 -40 5
-40 10 0 6 -13 10 -30 10 -16 0 -30 5 -30 10 0 6 -22 10 -50 10 -27 0 -50 5
-50 10 0 6 -13 10 -30 10 -16 0 -30 5 -30 10 0 6 -24 10 -52 10 -38 0 -49 3
-38 10 11 7 -4 10 -50 10 -46 0 -61 3 -50 10 11 7 -4 10 -50 10 -46 0 -61 3
-50 10 10 7 -29 10 -120 11 -83 1 -125 4 -110 9 17 6 2 8 -50 8 -52 0 -67 -2
-50 -8 15 -5 -26 -8 -107 -9 -82 -1 -133 -5 -133 -11 0 -5 -19 -10 -42 -10
-32 0 -39 -3 -28 -10 11 -7 4 -10 -27 -10 -24 0 -43 -4 -43 -10 0 -5 -18 -10
-40 -10 -22 0 -40 -4 -40 -10 0 -5 -18 -10 -40 -10 -22 0 -40 -4 -40 -10 0 -5
-22 -10 -50 -10 -27 0 -50 -4 -50 -10 0 -5 -18 -10 -40 -10 -22 0 -40 -4 -40
-10 0 -5 -24 -10 -52 -10 -38 0 -49 -3 -38 -10 11 -7 -3 -10 -47 -10 -35 0
-63 -4 -63 -10 0 -5 -22 -10 -50 -10 -27 0 -50 -4 -50 -10 0 -5 -22 -10 -50
-10 -27 0 -50 -4 -50 -10 0 -6 -30 -10 -70 -10 -40 0 -70 -4 -70 -10 0 -6 -30
-10 -70 -10 -40 0 -70 -4 -70 -10 0 -6 -43 -10 -110 -10 -67 0 -110 -4 -110
-10 0 -6 -90 -10 -250 -10 -160 0 -250 4 -250 10 0 6 -33 10 -80 10 -47 0 -80
4 -80 10 0 6 -18 10 -40 10 -22 0 -40 5 -40 10 0 6 -13 10 -30 10 -16 0 -30 5
-30 10 0 6 -13 10 -30 10 -16 0 -30 5 -30 10 0 6 -9 10 -20 10 -11 0 -20 5
-20 10 0 6 -7 10 -16 10 -9 0 -29 13 -44 30 -15 16 -35 30 -44 30 -9 0 -16 8
-16 18 0 10 -9 24 -20 32 -11 8 -20 22 -20 32 0 10 -4 18 -10 18 -6 0 -10 43
-10 110 0 67 4 110 10 110 6 0 10 20 10 45 0 35 -6 52 -25 70 -13 14 -32 25
-42 25 -15 0 -16 -2 -3 -10 12 -8 9 -10 -13 -10 -44 0 -77 -40 -77 -95 0 -25
-4 -45 -10 -45 -6 0 -10 -40 -10 -100 0 -60 4 -100 10 -100 6 0 10 -18 10 -40
0 -22 5 -40 10 -40 6 0 10 -9 10 -20 0 -11 5 -20 10 -20 6 0 10 -8 10 -18 0
-10 9 -24 20 -32 11 -8 20 -20 20 -28 0 -16 45 -62 61 -62 6 0 24 -13 39 -30
15 -16 35 -30 44 -30 9 0 16 -4 16 -10 0 -5 9 -10 20 -10 11 0 20 -4 20 -10 0
-5 9 -10 20 -10 11 0 20 -4 20 -10 0 -5 9 -10 20 -10 11 0 20 -4 20 -10 0 -5
14 -10 30 -10 17 0 30 -4 30 -10 0 -5 14 -10 30 -10 17 0 30 -4 30 -10 0 -5
18 -10 40 -10 22 0 40 -4 40 -10 0 -5 18 -10 40 -10 22 0 40 -4 40 -10 0 -6
30 -10 70 -10 40 0 70 -4 70 -10 0 -6 51 -10 133 -10 89 0 127 -3 117 -10 -10
-6 58 -10 200 -10 142 0 210 4 200 10 -10 6 42 10 158 10 108 0 172 4 172 10
0 6 44 10 113 10 76 0 107 3 97 10 -10 7 15 10 80 10 65 0 90 3 80 10 -10 7
14 10 78 10 54 0 92 4 92 10 0 6 23 10 50 10 39 0 50 4 50 16 0 18 24 44 40
44 7 0 25 14 40 30 15 17 35 30 44 30 9 0 16 5 16 10 0 6 9 10 20 10 11 0 20
5 20 10 0 6 14 10 30 10 17 0 30 5 30 10 0 6 23 10 50 10 28 0 50 -4 50 -10 0
-5 -13 -10 -30 -10 -16 0 -30 -4 -30 -10 0 -5 -7 -10 -16 -10 -9 0 -29 -13
-44 -30 -15 -16 -33 -30 -40 -30 -15 0 -40 -25 -40 -40 0 -7 -13 -25 -30 -40
-16 -15 -30 -34 -30 -42 0 -7 -9 -20 -20 -28 -11 -8 -20 -22 -20 -32 0 -10 -4
-18 -10 -18 -5 0 -10 -8 -10 -18 0 -10 -9 -24 -20 -32 -11 -8 -20 -21 -20 -30
0 -9 -9 -22 -20 -30 -11 -8 -20 -22 -20 -32 0 -10 -4 -18 -10 -18 -5 0 -10 -7
-10 -16 0 -9 -13 -29 -30 -44 -16 -15 -30 -33 -30 -39 0 -15 -126 -141 -141
-141 -6 0 -24 -13 -39 -30 -15 -16 -34 -30 -42 -30 -7 0 -20 -9 -28 -20 -8
-11 -22 -20 -32 -20 -10 0 -18 -4 -18 -10 0 -5 -9 -10 -20 -10 -11 0 -20 -4
-20 -10 0 -5 -13 -10 -30 -10 -16 0 -30 -4 -30 -10 0 -5 -9 -10 -20 -10 -11 0
-20 -4 -20 -10 0 -5 -18 -10 -40 -10 -22 0 -40 -4 -40 -10 0 -6 -93 -10 -260
-10 -167 0 -260 4 -260 10 0 6 -18 10 -40 10 -22 0 -40 5 -40 10 0 6 -5 10
-11 10 -5 0 -7 -4 -4 -10 3 -6 -4 -10 -17 -10 -13 0 -30 -9 -38 -20 -8 -11
-21 -20 -30 -20 -9 0 -22 -9 -30 -20 -8 -11 -21 -20 -30 -20 -9 0 -22 -9 -30
-20 -8 -11 -22 -20 -32 -20 -10 0 -18 -4 -18 -10 0 -5 -8 -10 -18 -10 -10 0
-24 -9 -32 -20 -16 -22 -45 -26 -54 -7 -5 10 -7 10 -12 0 -3 -7 -19 -13 -35
-13 -16 0 -29 -4 -29 -10 0 -5 -13 -10 -30 -10 -16 0 -30 -4 -30 -10 0 -5 -13
-10 -30 -10 -16 0 -30 -4 -30 -10 0 -5 -13 -10 -30 -10 -16 0 -30 -4 -30 -10
0 -5 -13 -10 -30 -10 -16 0 -30 -4 -30 -10 0 -5 -13 -10 -30 -10 -16 0 -30 -4
-30 -10 0 -5 -15 -10 -32 -10 -25 0 -29 -3 -18 -10 11 -7 7 -10 -17 -10 -18 0
-33 -4 -33 -10 0 -5 -13 -10 -30 -10 -16 0 -30 -4 -30 -10 0 -5 -13 -10 -30
-10 -16 0 -30 -4 -30 -10 0 -6 -33 -10 -78 -10 -66 0 -80 -3 -92 -20 -8 -11
-22 -20 -32 -20 -10 0 -18 -4 -18 -10 0 -5 -7 -10 -15 -10 -27 0 -65 -47 -65
-80 0 -39 58 -100 95 -100 14 0 25 -4 25 -10 0 -5 18 -10 40 -10 22 0 40 5 40
10 0 6 14 10 30 10 17 0 30 5 30 10 0 6 18 10 40 10 22 0 40 5 40 10 0 6 14
10 30 10 17 0 30 5 30 10 0 6 19 10 43 10 31 0 38 3 27 10 -11 7 -4 10 28 10
23 0 42 5 42 10 0 6 14 10 30 10 17 0 30 5 30 10 0 6 18 10 40 10 22 0 40 5
40 10 0 6 14 10 30 10 17 0 30 5 30 10 0 6 14 10 30 10 17 0 30 5 30 10 0 6 9
10 20 10 11 0 20 5 20 10 0 6 -4 10 -10 10 -5 0 -10 5 -10 10 0 6 23 10 50 10
28 0 50 -4 50 -10 0 -5 9 -10 20 -10 11 0 20 5 20 10 0 6 78 10 213 10 140 0
207 4 197 10 -11 7 -4 10 28 10 23 0 42 5 42 10 0 6 9 10 20 10 11 0 20 5 20
10 0 6 9 10 20 10 11 0 20 -4 20 -10 0 -5 19 -10 43 -10 31 0 38 -3 27 -10
-10 -7 26 -10 110 -10 84 0 120 -3 110 -10 -10 -7 14 -10 78 -10 54 0 92 -4
92 -10 0 -6 27 -10 60 -10 33 0 60 -4 60 -10 0 -6 28 -10 63 -10 44 0 58 -3
47 -10 -11 -7 3 -10 48 -10 34 0 62 -4 62 -10 0 -5 18 -10 40 -10 22 0 40 -4
40 -10 0 -6 37 -10 90 -10 53 0 90 4 90 10 0 6 14 10 30 10 17 0 30 5 30 10 0
6 9 10 20 10 11 0 20 5 20 10 0 6 14 10 30 10 17 0 30 5 30 10 0 6 9 10 20 10
11 0 20 5 20 10 0 6 9 10 20 10 11 0 20 5 20 10 0 6 8 10 18 10 10 0 24 9 32
20 8 11 22 20 32 20 10 0 18 5 18 10 0 6 9 10 20 10 11 0 20 5 20 10 0 6 8 10
18 10 10 0 24 9 32 20 8 11 21 20 30 20 9 0 22 9 30 20 8 11 21 20 30 20 9 0
22 9 30 20 8 11 21 20 30 20 9 0 22 9 30 20 8 11 21 20 30 20 9 0 22 9 30 20
8 11 21 20 30 20 9 0 22 9 30 20 8 11 21 20 30 20 9 0 22 9 30 20 8 11 21 20
28 20 8 0 27 14 42 30 15 17 34 30 42 30 7 0 20 9 28 20 8 11 22 20 32 20 10
0 18 5 18 10 0 6 10 10 23 10 18 0 19 2 7 10 -12 8 -11 10 8 10 12 0 22 5 22
10 0 6 8 10 18 10 10 0 24 9 32 20 8 11 22 20 32 20 10 0 18 5 18 10 0 6 9 10
20 10 11 0 20 5 20 10 0 6 9 10 20 10 11 0 20 5 20 10 0 6 9 10 20 10 11 0 20
5 20 10 0 6 14 10 30 10 17 0 30 5 30 10 0 6 18 10 40 10 22 0 40 5 40 10 0 6
33 10 80 10 47 0 80 -4 80 -10 0 -5 -13 -10 -30 -10 -16 0 -30 -4 -30 -10 0
-5 -13 -10 -30 -10 -16 0 -30 -4 -30 -10 0 -5 -13 -10 -30 -10 -16 0 -30 -4
-30 -10 0 -5 -9 -10 -20 -10 -11 0 -20 -4 -20 -10 0 -5 -15 -10 -32 -10 -25 0
-29 -3 -18 -10 12 -8 11 -10 -7 -10 -13 0 -23 -4 -23 -10 0 -5 -9 -10 -20 -10
-11 0 -20 -4 -20 -10 0 -5 -8 -10 -18 -10 -10 0 -24 -9 -32 -20 -8 -11 -20
-20 -28 -20 -13 0 -42 -23 -42 -34 0 -3 9 -6 20 -6 11 0 20 -4 20 -10 0 -6 33
-10 80 -10 47 0 80 -4 80 -10 0 -5 23 -10 50 -10 28 0 50 -4 50 -10 0 -5 18
-10 40 -10 22 0 40 -4 40 -10 0 -5 18 -10 40 -10 22 0 40 -4 40 -10 0 -5 14
-10 30 -10 17 0 30 -4 30 -10 0 -5 18 -10 40 -10 22 0 40 -4 40 -10 0 -5 14
-10 30 -10 17 0 30 -4 30 -10 0 -5 14 -10 30 -10 17 0 30 -4 30 -10 0 -5 18
-10 40 -10 22 0 40 -4 40 -10 0 -5 14 -10 30 -10 17 0 30 -4 30 -10 0 -5 14
-10 30 -10 17 0 30 -4 30 -10 0 -5 17 -10 38 -10 26 0 42 -6 52 -20 9 -12 26
-20 45 -20 23 0 27 -3 15 -10 -11 -7 -4 -10 28 -10 23 0 42 -4 42 -10 0 -5 9
-10 20 -10 11 0 20 -4 20 -10 0 -5 23 -10 50 -10 28 0 50 -4 50 -10 0 -5 24
-10 53 -10 37 0 48 -3 37 -10 -10 -7 11 -10 70 -10 59 0 80 -3 70 -10 -10 -6
64 -10 218 -10 148 0 232 4 232 10 0 6 18 10 40 10 22 0 40 5 40 10 0 6 14 10
30 10 17 0 30 5 30 10 0 6 9 10 20 10 11 0 20 5 20 10 0 6 9 10 20 10 11 0 20
5 20 10 0 6 9 10 20 10 11 0 20 5 20 10 0 6 8 10 18 10 10 0 24 9 32 20 8 11
22 20 32 20 10 0 18 5 18 10 0 6 8 10 18 10 10 0 24 9 32 20 8 11 21 20 30 20
9 0 22 9 30 20 8 11 21 20 30 20 9 0 22 9 30 20 8 11 21 20 30 20 9 0 22 9 30
20 8 11 21 20 30 20 9 0 22 9 30 20 8 11 21 20 30 20 9 0 22 9 30 20 8 11 22
20 32 20 24 0 23 32 -2 50 -11 8 -20 21 -20 30 0 9 -9 22 -20 30 -11 8 -20 21
-20 30 0 9 -9 22 -20 30 -11 8 -20 22 -20 32 0 10 -4 18 -10 18 -5 0 -10 8
-10 18 0 10 -9 24 -20 32 -11 8 -20 22 -20 32 0 10 -4 18 -10 18 -5 0 -10 7
-10 15 0 26 -66 85 -95 85 -14 0 -25 5 -25 10 0 6 -8 10 -18 10 -10 0 -24 9
-32 20 -8 11 -20 20 -28 20 -12 0 -62 43 -62 55 0 3 9 5 20 5 11 0 20 -4 20
-10 0 -5 9 -10 20 -10 11 0 20 -4 20 -10 0 -5 9 -10 20 -10 11 0 20 -4 20 -10
0 -5 9 -10 20 -10 11 0 20 -4 20 -10 0 -5 18 -10 40 -10 22 0 40 -4 40 -10 0
-6 50 -10 130 -10 80 0 130 -4 130 -10 0 -5 -9 -10 -20 -10 -11 0 -20 -4 -20
-10 0 -5 -13 -10 -30 -10 -16 0 -30 -4 -30 -10 0 -5 -13 -10 -30 -10 -23 0
-30 -4 -30 -20 0 -11 5 -20 10 -20 6 0 10 -8 10 -18 0 -10 9 -24 20 -32 11 -8
20 -22 20 -32 0 -10 5 -18 10 -18 6 0 10 -9 10 -20 0 -11 5 -20 10 -20 6 0 10
-8 10 -18 0 -10 9 -24 20 -32 11 -8 20 -22 20 -32 0 -10 5 -18 10 -18 6 0 10
-8 10 -18 0 -10 9 -24 20 -32 11 -8 20 -21 20 -28 0 -8 14 -27 30 -42 17 -15
30 -33 30 -40 0 -7 14 -25 30 -40 17 -15 30 -33 30 -40 0 -6 27 -38 60 -70 33
-32 60 -66 60 -74 0 -9 5 -16 10 -16 6 0 10 -9 10 -20 0 -11 5 -20 10 -20 6 0
10 -7 10 -15 0 -9 16 -31 35 -50 27 -28 42 -35 72 -35 28 0 34 -3 23 -10 -10
-7 8 -10 60 -10 52 0 70 3 60 10 -10 6 156 10 478 10 321 0 492 -3 492 -10 0
-6 29 -10 66 -10 64 0 67 -1 105 -41 l40 -41 18 21 c15 17 30 21 75 21 31 0
56 -4 56 -10 0 -5 23 -10 50 -10 28 0 50 -4 50 -10 0 -5 14 -10 30 -10 17 0
30 -4 30 -10 0 -5 14 -10 30 -10 17 0 30 5 30 10 0 6 30 10 70 10 40 0 70 4
70 10 0 6 21 10 46 10 64 0 93 32 60 66 -9 9 -35 14 -70 14 -31 0 -56 5 -56
10 0 6 37 10 90 10 80 0 90 2 90 18 0 10 -9 24 -20 32 -14 10 -16 16 -7 22 7
5 -1 8 -20 8 -18 0 -33 -4 -33 -10 0 -6 -40 -10 -100 -10 -60 0 -100 4 -100
10 0 6 -9 10 -20 10 -11 0 -20 5 -20 10 0 6 -13 10 -30 10 -16 0 -30 4 -30 10
0 6 -82 11 -212 12 -196 3 -213 4 -210 21 2 14 -5 17 -48 17 -27 0 -50 5 -50
10 0 6 -27 10 -60 10 -33 0 -60 4 -60 10 0 6 -27 10 -60 10 -33 0 -60 4 -60
10 0 6 -30 10 -70 10 -40 0 -70 4 -70 10 0 6 -22 10 -50 10 -27 0 -50 5 -50
10 0 6 -27 10 -60 10 -33 0 -60 4 -60 10 0 6 -28 10 -62 10 -45 0 -59 3 -48
10 11 7 0 10 -37 10 -29 0 -53 5 -53 10 0 6 -22 10 -50 10 l-50 0 0 113 c0 76
-3 107 -10 97 -7 -10 -10 11 -10 68 0 48 -4 82 -10 82 -5 0 -10 23 -10 50 0
28 -4 50 -10 50 -5 0 -10 18 -10 40 0 22 5 40 10 40 6 0 10 40 10 100 0 60 -4
100 -10 100 -5 0 -10 18 -10 40 0 22 -4 40 -10 40 -5 0 -10 9 -10 20 0 11 -4
20 -10 20 -5 0 -10 9 -10 20 0 11 -4 20 -10 20 -5 0 -10 8 -10 18 0 10 -9 24
-20 32 -11 8 -20 20 -20 28 0 16 -45 62 -61 62 -6 0 -24 14 -39 30 -15 17 -35
30 -44 30 -9 0 -16 5 -16 10 0 6 -13 10 -30 10 -16 0 -30 5 -30 10 0 6 18 10
40 10 22 0 40 -4 40 -10 0 -5 9 -10 20 -10 11 0 20 -4 20 -10 0 -5 9 -10 20
-10 11 0 20 -4 20 -10 0 -5 8 -10 18 -10 10 0 24 -9 32 -20 8 -11 20 -20 28
-20 17 0 42 -24 42 -40 0 -7 14 -25 30 -40 17 -15 30 -35 30 -44 0 -9 5 -16
10 -16 6 0 10 -9 10 -20 0 -11 5 -20 10 -20 6 0 10 -13 10 -30 0 -16 5 -30 10
-30 6 0 10 -24 10 -52 0 -38 3 -49 10 -38 7 11 10 7 10 -17 0 -18 3 -33 6 -33
3 0 23 18 44 40 31 32 46 40 74 40 20 0 36 -4 36 -10 0 -5 14 -10 30 -10 17 0
30 -4 30 -10 0 -5 18 -10 40 -10 22 0 40 -4 40 -10 0 -5 18 -10 40 -10 22 0
40 -4 40 -10 0 -6 64 -10 173 -10 115 0 167 -4 157 -10 -11 -7 0 -10 38 -10
28 0 52 -4 52 -10 0 -5 18 -10 40 -10 22 0 40 -4 40 -10 0 -5 21 -10 46 -10
44 0 74 16 74 40 0 21 69 80 95 80 14 0 25 5 25 10 0 6 7 10 16 10 8 0 22 6
30 14 16 17 19 66 4 66 -5 0 -10 7 -10 15 0 9 -36 51 -80 95 l-80 79 0 71 c0
62 -3 74 -25 95 -13 14 -29 25 -36 25 -6 0 -24 14 -39 30 -15 17 -33 30 -40
30 -7 0 -25 14 -40 30 -15 17 -33 30 -40 30 -6 0 -8 5 -4 12 4 6 3 8 -4 4 -13
-8 -92 67 -92 88 0 9 -4 16 -10 16 -5 0 -10 14 -10 30 0 17 -4 30 -10 30 -5 0
-10 7 -10 16 0 15 -23 44 -34 44 -3 0 -6 -4 -6 -10z m286 -444 c8 -8 14 -31
14 -50 0 -32 -3 -36 -25 -36 -17 0 -41 15 -70 45 -25 24 -45 47 -45 50 0 12
112 4 126 -9z m-2060 -440 c18 -19 18 -26 -2 -26 -15 0 -44 23 -44 34 0 12 32
6 46 -8z"/>
<path d="M2800 3500 l0 -720 190 0 190 0 0 340 c0 187 2 340 5 340 3 0 41 -36
85 -80 44 -44 84 -80 90 -80 6 0 127 -117 270 -260 l260 -260 65 0 65 0 0 720
0 720 -180 0 -180 0 0 -350 c0 -227 -4 -350 -10 -350 -5 0 -10 5 -10 10 0 6
-7 10 -15 10 -8 0 -168 153 -355 340 l-340 340 -65 0 -65 0 0 -720z"/>
<path d="M4833 4205 c-9 -10 -13 -59 -13 -170 l0 -155 180 0 180 0 0 -550 0
-550 180 0 180 0 0 550 0 550 166 0 c130 0 168 3 180 14 11 11 14 47 14 156 0
109 -3 145 -14 156 -22 21 -1035 20 -1053 -1z"/>
<path d="M6700 3500 l0 -720 440 0 440 0 0 160 0 160 -246 0 c-199 0 -248 3
-260 14 -12 12 -14 101 -14 560 l0 546 -180 0 -180 0 0 -720z"/>
</g>
</svg>
